HIERARCHY
ROOT Hips
{
  OFFSET -4.35178 90.3298 111.633
  CHANNELS 6 Xposition Yposition Zposition Zrotation Xrotation Yrotation
  JOINT LeftUpLeg
  {
    OFFSET 0.103456 1.85784 10.5485
    CHANNELS 6 Xposition Yposition Zposition Zrotation Xrotation Yrotation
    JOINT LeftLeg
    {
      OFFSET 43.5 -4.2e-05 0
      CHANNELS 6 Xposition Yposition Zposition Zrotation Xrotation Yrotation
      JOINT LeftFoot
      {
        OFFSET 42.3722 1.9e-05 0
        CHANNELS 6 Xposition Yposition Zposition Zrotation Xrotation Yrotation
        JOINT LeftToe
        {
          OFFSET 17.3 0 0
          CHANNELS 6 Xposition Yposition Zposition Zrotation Xrotation Yrotation
          End Site
          {
            OFFSET 0 0 0
          }
        }
      }
    }
  }
  JOINT RightUpLeg
  {
    OFFSET 0.103456 1.85782 -10.5485
    CHANNELS 6 Xposition Yposition Zposition Zrotation Xrotation Yrotation
    JOINT RightLeg
    {
      OFFSET 43.5 -2.7e-05 0
      CHANNELS 6 Xposition Yposition Zposition Zrotation Xrotation Yrotation
      JOINT RightFoot
      {
        OFFSET 42.3723 0 0
        CHANNELS 6 Xposition Yposition Zposition Zrotation Xrotation Yrotation
        JOINT RightToe
        {
          OFFSET 17.3 0 1.7e-05
          CHANNELS 6 Xposition Yposition Zposition Zrotation Xrotation Yrotation
          End Site
          {
            OFFSET 0 0 0
          }
        }
      }
    }
  }
  JOINT Spine
  {
    OFFSET 6.90197 -2.60373 0
    CHANNELS 6 Xposition Yposition Zposition Zrotation Xrotation Yrotation
    JOINT Spine1
    {
      OFFSET 12.5881 0 0
      CHANNELS 6 Xposition Yposition Zposition Zrotation Xrotation Yrotation
      JOINT Spine2
      {
        OFFSET 12.3432 -1.8e-05 0
        CHANNELS 6 Xposition Yposition Zposition Zrotation Xrotation Yrotation
        JOINT Neck
        {
          OFFSET 25.8329 2.3e-05 0
          CHANNELS 6 Xposition Yposition Zposition Zrotation Xrotation Yrotation
          JOINT Head
          {
            OFFSET 11.7666 0 0
            CHANNELS 6 Xposition Yposition Zposition Zrotation Xrotation Yrotation
            End Site
            {
              OFFSET 0 0 0
            }
          }
        }
        JOINT LeftShoulder
        {
          OFFSET 19.7459 -1.48035 6.0001
          CHANNELS 6 Xposition Yposition Zposition Zrotation Xrotation Yrotation
          JOINT LeftArm
          {
            OFFSET 11.2841 1.8e-05 -2e-05
            CHANNELS 6 Xposition Yposition Zposition Zrotation Xrotation Yrotation
            JOINT LeftForeArm
            {
              OFFSET 33 -1.3e-05 1.9e-05
              CHANNELS 6 Xposition Yposition Zposition Zrotation Xrotation Yrotation
              JOINT LeftHand
              {
                OFFSET 25.2 3.2e-05 1.1e-05
                CHANNELS 6 Xposition Yposition Zposition Zrotation Xrotation Yrotation
                End Site
                {
                  OFFSET 0 0 0
                }
              }
            }
          }
        }
        JOINT RightShoulder
        {
          OFFSET 19.7461 -1.48036 -6.00008
          CHANNELS 6 Xposition Yposition Zposition Zrotation Xrotation Yrotation
          JOINT RightArm
          {
            OFFSET 11.2841 0 0
            CHANNELS 6 Xposition Yposition Zposition Zrotation Xrotation Yrotation
            JOINT RightForeArm
            {
              OFFSET 33.0001 1.6e-05 0
              CHANNELS 6 Xposition Yposition Zposition Zrotation Xrotation Yrotation
              JOINT RightHand
              {
                OFFSET 25.1998 0.000123 0.000432
                CHANNELS 6 Xposition Yposition Zposition Zrotation Xrotation Yrotation
                End Site
                {
                  OFFSET 0 0 0
                }
              }
            }
          }
        }
      }
    }
  }
}
MOTION
Frames:	9
Frame Time:	0.0333333
63.3195 89.8337 -133.738 -23.1382 -84.5706 -110.673 0.103456 1.85784 10.5485 10.5227 1.89433 -178.441 43.5 -4.2e-05 1e-05 -6.71063 -5.2783 -2.26063 42.3722 1.9e-05 1.42109e-14 77.1983 -7.0361 -1.03315 17.3 0 3e-06 21.4546 -1e-06 0.003093 0.103456 1.85782 -10.5485 6.06926 -9.31813 175.223 43.5 -2.7e-05 4e-06 -13.4199 11.7826 3.05668 42.3723 0 1e-05 84.4864 7.34563 -3.90774 17.3 -6e-06 1.7e-05 21.4546 -1.9e-05 -0.003116 6.90197 -2.60373 -3e-06 7.19822 -1.42582 -0.477662 12.5881 1e-05 8e-06 4.41042 -2.85322 -0.71933 12.3432 -1.8e-05 -5e-06 4.14134 -2.82781 -0.529751 25.8329 2.3e-05 7e-06 3.54331 -4.0231 -7.81459 11.7666 -8e-06 -6e-06 -32.729 -8.1239 9.61739 19.7459 -1.48035 6.0001 -176.841 3.96158 -92.2215 11.2841 1.8e-05 -2e-05 28.9633 -18.6277 21.0521 33 -1.3e-05 1.9e-05 -32.8978 -2.71714 -17.3441 25.2 3.2e-05 1.1e-05 17.394 28.4362 -5.81316 19.7461 -1.48036 -6.00008 -179.366 4.09893 91.908 11.2841 -1.42109e-14 -1e-06 -9.8679 8.39694 -12.8892 33.0001 1.6e-05 -1e-06 -18.4477 -3.30916 14.3669 25.1998 0.000123 0.000432 7.14124 -14.2933 2.39316 
63.3212 89.8352 -133.746 -23.9077 -84.5416 -111.462 0.103456 1.85784 10.5485 10.5589 1.86602 -178.441 43.5 -4.2e-05 1e-05 -6.72906 -5.31077 -2.26075 42.3722 1.9e-05 0 77.2505 -7.07777 -0.985461 17.3 7.10543e-15 3e-06 21.4546 -1e-06 0.003093 0.103456 1.85782 -10.5485 6.06314 -9.3127 175.223 43.5 -2.7e-05 4e-06 -13.4488 11.7721 3.05656 42.3723 0 1e-05 84.5213 7.28859 -3.87589 17.3 -6e-06 1.7e-05 21.4546 -1.9e-05 -0.003116 6.90197 -2.60373 -3e-06 7.20374 -1.40261 -0.477657 12.5881 1e-05 8e-06 4.42048 -2.80775 -0.735722 12.3432 -1.8e-05 -5e-06 4.15063 -2.78329 -0.548947 25.8329 2.3e-05 7e-06 3.56876 -3.87229 -7.89388 11.7666 -8e-06 -6e-06 -32.5534 -7.89852 9.66985 19.7459 -1.48035 6.0001 -176.864 3.98328 -92.246 11.2841 1.8e-05 -2e-05 28.8878 -18.6488 21.0602 33 -1.3e-05 1.9e-05 -32.8984 -2.71694 -17.3579 25.2 3.2e-05 1.1e-05 17.3755 28.4362 -5.80086 19.7461 -1.48036 -6.00008 -179.396 4.16537 91.8587 11.2841 0 -1e-06 -9.88668 8.35185 -12.9237 33.0001 1.6e-05 -1e-06 -18.4895 -3.29421 14.3506 25.1998 0.000123 0.000432 7.14606 -14.291 2.39757 
63.3196 89.8373 -133.784 -24.698 -84.5147 -112.274 0.103456 1.85784 10.5485 10.5832 1.83637 -178.442 43.5 -4.2e-05 1e-05 -6.752 -5.34848 -2.25852 42.3722 1.9e-05 0 77.3087 -7.09181 -0.91787 17.3 0 3e-06 21.4546 -1e-06 0.003093 0.103456 1.85782 -10.5485 6.04269 -9.32713 175.223 43.5 -2.7e-05 4e-06 -13.4901 11.7483 3.0563 42.3723 0 1e-05 84.547 7.26313 -3.82968 17.3 -6e-06 1.7e-05 21.4546 -1.9e-05 -0.003116 6.90197 -2.60373 -3e-06 7.21248 -1.37418 -0.477652 12.5881 1e-05 8e-06 4.43684 -2.75197 -0.754991 12.3432 -1.8e-05 -5e-06 4.16605 -2.72857 -0.571638 25.8329 2.3e-05 7e-06 3.59652 -3.67929 -7.99843 11.7666 -8e-06 -6e-06 -32.3426 -7.61407 9.74473 19.7459 -1.48035 6.0001 -176.836 4.04346 -92.2371 11.2841 1.8e-05 -2e-05 28.8253 -18.6213 21.0204 33 -1.3e-05 1.9e-05 -32.901 -2.71998 -17.3329 25.2 3.2e-05 1.1e-05 17.2586 28.4292 -5.74185 19.7461 -1.48036 -6.00008 -179.423 4.23424 91.8148 11.2841 -1.42109e-14 -1e-06 -9.88684 8.32963 -12.9786 33.0001 1.6e-05 -1e-06 -18.5144 -3.2538 14.3469 25.1998 0.000123 0.000432 7.13172 -14.2741 2.41999 
63.3158 89.8388 -133.815 -25.4176 -84.4992 -113.02 0.103456 1.85784 10.5485 10.5977 1.81408 -178.431 43.5 -4.2e-05 1e-05 -6.76297 -5.38107 -2.27147 42.3722 1.9e-05 0 77.3626 -7.1331 -0.872983 17.3 0 3e-06 21.4546 -1e-06 0.003093 0.103456 1.85782 -10.5485 6.04248 -9.35687 175.231 43.5 -2.7e-05 4e-06 -13.4984 11.7184 3.05597 42.3723 0 1e-05 84.5302 7.23272 -3.77936 17.3 -6e-06 1.7e-05 21.4546 -1.9e-05 -0.003116 6.90197 -2.60373 -3e-06 7.22089 -1.34638 -0.477646 12.5881 1e-05 8e-06 4.45295 -2.69665 -0.762707 12.3432 -1.8e-05 -5e-06 4.1812 -2.6736 -0.582786 25.8329 2.3e-05 7e-06 3.62809 -3.44496 -8.13203 11.7666 -8e-06 -6e-06 -32.1407 -7.26039 9.82163 19.7459 -1.48035 6.0001 -176.829 4.10584 -92.2631 11.2841 1.8e-05 -2e-05 28.8014 -18.6378 21.034 33 -1.3e-05 1.9e-05 -32.8626 -2.7577 -17.3372 25.2 3.2e-05 1.1e-05 17.323 28.4101 -5.78198 19.7461 -1.48036 -6.00008 -179.485 4.32579 91.7579 11.2841 2.84217e-14 -1e-06 -9.84345 8.31987 -13.0146 33.0001 1.6e-05 -1e-06 -18.6393 -3.22278 14.3556 25.1998 0.000123 0.000432 7.1645 -14.2552 2.40219 
63.3136 89.834 -133.845 -25.9942 -84.5002 -113.627 0.103456 1.85784 10.5485 10.5969 1.77668 -178.41 43.5 -4.2e-05 1e-05 -6.77876 -5.40688 -2.28602 42.3722 1.9e-05 0 77.4174 -7.1639 -0.848211 17.3 0 3e-06 21.4546 -1e-06 0.003093 0.103456 1.85782 -10.5485 6.03262 -9.39278 175.241 43.5 -2.7e-05 4e-06 -13.4938 11.6941 3.0557 42.3723 0 1e-05 84.5284 7.23554 -3.72692 17.3 -6e-06 1.7e-05 21.4546 -1.9e-05 -0.003116 6.90197 -2.60373 -3e-06 7.23497 -1.31442 -0.47764 12.5881 1e-05 8e-06 4.48048 -2.63264 -0.766458 12.3432 -1.8e-05 -5e-06 4.20758 -2.60955 -0.590497 25.8329 2.3e-05 7e-06 3.66151 -3.2126 -8.25627 11.7666 -8e-06 -6e-06 -31.9522 -6.91615 9.89683 19.7459 -1.48035 6.0001 -176.849 4.16466 -92.2887 11.2841 1.8e-05 -2e-05 28.7588 -18.6817 21.0646 33 -1.3e-05 1.9e-05 -32.8606 -2.77577 -17.3338 25.2 3.2e-05 1.1e-05 17.37 28.3993 -5.78026 19.7461 -1.48036 -6.00008 -179.529 4.41935 91.6852 11.2841 1.42109e-14 -1e-06 -9.772 8.23672 -13.0331 33.0001 1.6e-05 -1e-06 -18.7632 -3.20413 14.3712 25.1998 0.000123 0.000432 7.18508 -14.2598 2.41777 
63.3125 89.8232 -133.865 -26.8225 -84.4998 -114.495 0.103456 1.85784 10.5485 10.5994 1.71571 -178.37 43.5 -4.2e-05 1e-05 -6.78538 -5.43561 -2.29714 42.3722 1.9e-05 0 77.4747 -7.2427 -0.816462 17.3 -7.10543e-15 3e-06 21.4546 -1e-06 0.003093 0.103456 1.85782 -10.5485 5.94491 -9.43156 175.258 43.5 -2.7e-05 4e-06 -13.602 11.6676 3.0554 42.3723 0 1e-05 84.5725 7.17361 -3.67943 17.3 -6e-06 1.7e-05 21.4546 -1.9e-05 -0.003116 6.90197 -2.60373 -3e-06 7.25138 -1.28492 -0.477634 12.5881 1e-05 8e-06 4.51326 -2.57232 -0.752871 12.3432 -1.8e-05 -5e-06 4.23924 -2.54799 -0.580678 25.8329 2.3e-05 7e-06 3.67747 -3.04915 -8.36736 11.7666 -8e-06 -6e-06 -31.7817 -6.62077 9.91479 19.7459 -1.48035 6.0001 -176.862 4.1892 -92.2966 11.2841 1.8e-05 -2e-05 28.6845 -18.6822 21.1076 33 -1.3e-05 1.9e-05 -32.8248 -2.78864 -17.3165 25.2 3.2e-05 1.1e-05 17.3468 28.3878 -5.74954 19.7461 -1.48036 -6.00008 -179.6 4.51616 91.5924 11.2841 0 -1e-06 -9.7235 8.15385 -13.0052 33.0001 1.6e-05 -1e-06 -18.9396 -3.23005 14.3905 25.1998 0.000123 0.000432 7.15518 -14.269 2.40232 
63.309 89.8157 -133.882 -27.7193 -84.4971 -115.424 0.103456 1.85784 10.5485 10.603 1.65539 -178.328 43.5 -4.2e-05 1e-05 -6.7692 -5.47117 -2.31904 42.3722 1.9e-05 0 77.568 -7.32942 -0.812839 17.3 7.10543e-15 3e-06 21.4546 -1e-06 0.003093 0.103456 1.85782 -10.5485 5.78423 -9.47313 175.259 43.5 -2.7e-05 4e-06 -13.8595 11.6578 3.05978 42.3723 0 1e-05 84.6922 7.07808 -3.64738 17.3 -6e-06 1.7e-05 21.4546 -1.9e-05 -0.003116 6.90197 -2.60373 -3e-06 7.27622 -1.24813 -0.477628 12.5881 1e-05 8e-06 4.56233 -2.49821 -0.753167 12.3432 -1.8e-05 -5e-06 4.28699 -2.47333 -0.58553 25.8329 2.3e-05 7e-06 3.67106 -2.89823 -8.46626 11.7666 -8e-06 -6e-06 -31.5938 -6.36231 9.92365 19.7459 -1.48035 6.0001 -176.895 4.22095 -92.279 11.2841 1.8e-05 -2e-05 28.5732 -18.7011 21.1853 33 -1.3e-05 1.9e-05 -32.8374 -2.72246 -17.3633 25.2 3.2e-05 1.1e-05 17.2471 28.3993 -5.77 19.7461 -1.48036 -6.00008 -179.633 4.59231 91.4657 11.2841 0 -1e-06 -9.60471 8.03357 -13.0253 33.0001 1.6e-05 -1e-06 -19.2423 -3.23256 14.4383 25.1998 0.000123 0.000432 7.07807 -14.2339 2.3572 
63.3061 89.8121 -133.9 -28.6464 -84.4979 -116.391 0.103456 1.85784 10.5485 10.6053 1.55972 -178.259 43.5 -4.2e-05 1e-05 -6.7525 -5.49698 -2.3516 42.3722 1.9e-05 -1.42109e-14 77.7137 -7.54108 -0.84691 17.3 0 3e-06 21.4546 -1e-06 0.003093 0.103456 1.85782 -10.5485 5.51837 -9.5291 175.263 43.5 -2.7e-05 4e-06 -14.3228 11.6611 3.07719 42.3723 0 1e-05 84.9081 6.95286 -3.61032 17.3 -6e-06 1.7e-05 21.4546 -1.9e-05 -0.003116 6.90197 -2.60373 -3e-06 7.30501 -1.20207 -0.473951 12.5881 1e-05 8e-06 4.61902 -2.40533 -0.751656 12.3432 -1.8e-05 -5e-06 4.34204 -2.37969 -0.589744 25.8329 2.3e-05 7e-06 3.66044 -2.78699 -8.52734 11.7666 -8e-06 -6e-06 -31.3744 -6.16378 9.90285 19.7459 -1.48035 6.0001 -177 4.23635 -92.3121 11.2841 1.8e-05 -2e-05 28.4583 -18.8585 21.5778 33 -1.3e-05 1.9e-05 -32.9233 -2.42698 -17.5561 25.2 3.2e-05 1.1e-05 16.9899 28.4803 -5.78993 19.7461 -1.48036 -6.00008 -179.608 4.61852 91.3098 11.2841 1.42109e-14 -1e-06 -9.33595 7.96031 -13.1779 33.0001 1.6e-05 -1e-06 -19.8633 -3.16554 14.5625 25.1998 0.000123 0.000432 7.06668 -14.1625 2.30792 
63.3017 89.7971 -133.923 -29.7256 -84.4959 -117.513 0.103456 1.85784 10.5485 10.6033 1.44938 -178.174 43.5 -4.2e-05 1e-05 -6.76182 -5.532 -2.37531 42.3722 1.9e-05 -7.10543e-15 77.8876 -7.78503 -0.863615 17.3 0 3e-06 21.4546 -1e-06 0.003093 0.103456 1.85782 -10.5485 5.14007 -9.59331 175.261 43.5 -2.7e-05 4e-06 -15.0081 11.6744 3.11093 42.3723 0 1e-05 85.1997 6.77953 -3.58239 17.3 -6e-06 1.7e-05 21.4546 -1.9e-05 -0.003116 6.90197 -2.60373 -3e-06 7.35188 -1.1534 -0.470612 12.5881 1e-05 8e-06 4.71185 -2.30701 -0.750804 12.3432 -1.8e-05 -5e-06 4.43315 -2.2801 -0.594914 25.8329 2.3e-05 7e-06 3.53886 -2.64529 -8.57273 11.7666 -8e-06 -6e-06 -31.068 -5.96933 9.92406 19.7459 -1.48035 6.0001 -177.052 4.26802 -92.1827 11.2841 1.8e-05 -2e-05 28.3801 -18.9191 21.9421 33 -1.3e-05 1.9e-05 -33.3454 -2.35 -17.5038 25.2 3.2e-05 1.1e-05 16.5787 28.4495 -5.79394 19.7461 -1.48036 -6.00008 -179.503 4.65991 90.9295 11.2841 -1.42109e-14 -1e-06 -9.0628 7.48509 -13.2559 33.0001 1.6e-05 -1e-06 -21.1572 -3.14181 14.7695 25.1998 0.000123 0.000432 7.03383 -14.0557 2.15156 
